HIERARCHY
ROOT ui
{
	 OFFSET 0 0 0
	 CHANNELS 3 XPosition YPosition Z Position
	 EndSite
	 {
	 OFFSET 0 -1 0
	 }
}
ROOT li
{
	 OFFSET 0 0 0
	 CHANNELS 3 XPosition YPosition Z Position
	 EndSite
	 {
	 OFFSET 0 -1 0
	 }
}
ROOT ul
{
	 OFFSET 0 0 0
	 CHANNELS 3 XPosition YPosition Z Position
	 EndSite
	 {
	 OFFSET 0 -1 0
	 }
}
ROOT ll
{
	 OFFSET 0 0 0
	 CHANNELS 3 XPosition YPosition Z Position
	 EndSite
	 {
	 OFFSET 0 -1 0
	 }
}
ROOT tt
{
	 OFFSET 0 0 0
	 CHANNELS 3 XPosition YPosition Z Position
	 EndSite
	 {
	 OFFSET 0 -1 0
	 }
}
ROOT tb
{
	 OFFSET 0 0 0
	 CHANNELS 3 XPosition YPosition Z Position
	 EndSite
	 {
	 OFFSET 0 -1 0
	 }
}
ROOT td
{
	 OFFSET 0 0 0
	 CHANNELS 3 XPosition YPosition Z Position
	 EndSite
	 {
	 OFFSET 0 -1 0
	 }
}
ROOT v
{
	 OFFSET 0 0 0
	 CHANNELS 3 XPosition YPosition Z Position
	 EndSite
	 {
	 OFFSET 0 -1 0
	 }
}
ROOT bn
{
	 OFFSET 0 0 0
	 CHANNELS 3 XPosition YPosition Z Position
	 EndSite
	 {
	 OFFSET 0 -1 0
	 }
}
MOTION
Frames: 19
Frame Time: 0.002
-0.04302027130126953	0.0020817348957061768	0		0.5347681884765625	-2.45077734375	0		-0.8948991088867188	0.37193634033203127	0		-0.2919285583496094	-2.782554931640625	0		1.6737398681640625	-0.4838343811035156	0		3.031678466796875	0.15953781127929687	0		4.3438623046875	0.409735107421875	0		5.84655712890625	0.24769422912597655	0		-0.20456816101074218	5.965421875	0		
0.029010530471801757	-0.0032931289672851563	0		0.53284130859375	-2.45369287109375	0		-0.9006771240234375	0.37709326171875	0		-0.2887174072265625	-2.778572998046875	0		1.6618477783203125	-0.4845494384765625	0		3.013726318359375	0.15594607543945313	0		4.333986328125	0.40998944091796874	0		5.84868701171875	0.23559243774414063	0		-0.21865895080566405	5.95574169921875	0		
-0.042771903991699216	0.0021633100509643555	0		0.495033203125	-2.450901123046875	0		-0.926570068359375	0.37663726806640624	0		-0.2834524230957031	-2.7726357421875	0		1.6548204345703126	-0.4923569641113281	0		3.01461328125	0.14399301147460938	0		4.33796923828125	0.40298724365234373	0		5.84463818359375	0.25324546813964843	0		-0.3358166809082031	5.94508544921875	0		
0.03537542724609375	0.0026637721061706543	0		0.552195556640625	-2.450980712890625	0		-0.8803031616210938	0.38375518798828123	0		-0.30703427124023436	-2.75913330078125	0		1.65316650390625	-0.48126290893554685	0		3.021166259765625	0.1659445037841797	0		4.33532421875	0.4151343078613281	0		5.84472705078125	0.25343463134765626	0		-0.1872061767578125	5.97219921875	0		
-0.014475987434387208	0.004680140018463135	0		0.5414937133789063	-2.443723876953125	0		-0.8960689697265625	0.3900875244140625	0		-0.2718973388671875	-2.760793212890625	0		1.642374267578125	-0.4769880676269531	0		3.009970458984375	0.1502450408935547	0		4.33433837890625	0.410257080078125	0		5.84481396484375	0.25365338134765625	0		-0.35091744995117186	5.93644140625	0		
0.029490699768066408	-0.003153934955596924	0		0.5395936889648437	-2.446644775390625	0		-0.8959635009765625	0.390099853515625	0		-0.3453257751464844	-2.739319580078125	0		1.6363399658203126	-0.484808837890625	0		2.996102783203125	0.15160528564453124	0		4.33444384765625	0.4103673095703125	0		5.8552138671875	0.20668276977539063	0		-0.21850918579101564	5.9558671875	0		
-0.04537302017211914	-6.57729983329773E-4	0		0.5397467041015624	-2.446609375	0		-0.8958694458007812	0.39010540771484375	0		-0.2684954833984375	-2.756810302734375	0		1.6474892578125	-0.48296685791015626	0		3.015060791015625	0.14432025146484376	0		4.31942236328125	0.40477703857421876	0		5.84701123046875	0.24193637084960937	0		-0.21853076171875	5.95588671875	0		
0.029680431365966795	-0.0031102380752563476	0		0.4812325134277344	-2.42842626953125	0		-0.933763671875	0.39184854125976565	0		-0.3599768981933594	-2.736998291015625	0		1.604556396484375	-0.4840692138671875	0		3.007166259765625	0.14556146240234374	0		4.32361767578125	0.410810791015625	0		5.8514375	0.2523656768798828	0		-0.3500000305175781	5.93547216796875	0		
-0.017162502288818358	0.0018214360475540161	0		0.5103901977539063	-2.426971923828125	0		-0.8924561157226563	0.40403411865234373	0		-0.2858209228515625	-2.73644384765625	0		1.635650634765625	-0.483628662109375	0		3.011114501953125	0.1395633544921875	0		4.32367822265625	0.4109193420410156	0		5.8551943359375	0.26974069213867186	0		-0.3510435791015625	5.9364951171875	0		
0.03285736465454102	-1.5181300044059753E-4	0		0.535429931640625	-2.430444091796875	0		-0.9033944702148438	0.4052337646484375	0		-0.3176069030761719	-2.73082080078125	0		1.6208892822265626	-0.4742958679199219	0		3.01525732421875	0.14455609130859376	0		4.3347158203125	0.4108054504394531	0		5.85456005859375	0.27519842529296873	0		-0.2177614288330078	5.95388720703125	0		
-0.02014740180969238	-0.0011181169748306274	0		0.5246466674804687	-2.423221435546875	0		-0.8403717651367187	0.40498043823242186	0		-0.2943509826660156	-2.72228125	0		1.6448021240234374	-0.4807303466796875	0		3.011181396484375	0.1396991424560547	0		4.31961669921875	0.40519268798828123	0		5.861275390625	0.30970758056640624	0		-0.21882952880859374	5.95589892578125	0		
-0.02015311050415039	-0.0011287950277328491	0		0.5085596923828125	-2.42990673828125	0		-0.9192736206054688	0.4114924621582031	0		-0.3231558532714844	-2.7147333984375	0		1.63278955078125	-0.4814707641601563	0		2.988216064453125	0.1422022705078125	0		4.3196025390625	0.40527569580078127	0		5.85663134765625	0.26514056396484376	0		-0.21896382141113283	5.95588427734375	0		
-0.020192129135131836	-0.0011471740007400512	0		0.5355651245117188	-2.430440673828125	0		-0.8412579345703125	0.41393472290039063	0		-0.3159848937988281	-2.70689599609375	0		1.599669189453125	-0.4858112487792969	0		3.00199609375	0.1329741516113281	0		4.3282802734375	0.39117315673828124	0		5.859861328125	0.31534255981445314	0		-0.3505478515625	5.93541943359375	0		
-0.014148032188415528	0.004708849906921387	0		0.4918387451171875	-2.4146025390625	0		-0.9051692504882812	0.4231382751464844	0		-0.3417680358886719	-2.69442333984375	0		1.6385601806640624	-0.4885664367675781	0		3.005018798828125	0.13794447326660156	0		4.32820166015625	0.391227294921875	0		5.86765576171875	0.3151151123046875	0		-0.33555642700195315	5.94409326171875	0		
0.03266556167602539	-2.383970022201538E-4	0		0.5317894287109375	-2.414406494140625	0		-0.847344970703125	0.418962646484375	0		-0.30888937377929687	-2.698103759765625	0		1.6157061767578125	-0.47612847900390626	0		2.99286083984375	0.13519300842285156	0		4.32011669921875	0.3924183044433594	0		5.8675849609375	0.3152196044921875	0		-0.21950021362304686	5.95579541015625	0		
-0.017427413940429688	0.0016925580501556397	0		0.478767578125	-2.410410888671875	0		-0.8523741455078125	0.42400634765625	0		-0.3187600708007812	-2.686956787109375	0		1.60637841796875	-0.48697164916992186	0		2.989640625	0.13025010681152344	0		4.3158740234375	0.386512451171875	0		5.86749853515625	0.3152816162109375	0		-0.21970024108886718	5.9557509765625	0		
0.029346305847167967	-0.003270474910736084	0		0.51866357421875	-2.410234130859375	0		-0.8575947875976563	0.4200456237792969	0		-0.3615736083984375	-2.671177490234375	0		1.60216650390625	-0.4909275817871094	0		2.984248046875	0.11732897186279297	0		4.3054794921875	0.3737015686035156	0		5.8517255859375	0.3177645263671875	0		-0.21989865112304688	5.9556982421875	0		
-0.020779457092285156	-0.0013588889837265015	0		0.49037261962890627	-2.417745361328125	0		-0.9266610717773438	0.4253206787109375	0		-0.3458131103515625	-2.676549072265625	0		1.5989376220703124	-0.49491912841796876	0		2.985247802734375	0.1252653579711914	0		4.3094384765625	0.37958761596679685	0		5.8759501953125	0.2387076416015625	0		-0.351509521484375	5.93518701171875	0		
0.032081165313720704	-4.585939943790436E-4	0		0.5255293579101562	-2.401497802734375	0		-0.8487666015625	0.42773440551757813	0		-0.35062924194335937	-2.658525390625	0		1.5987696533203124	-0.4949879150390625	0		2.969927001953125	0.11749022674560547	0		4.30927001953125	0.3795202941894531	0		5.87953515625	0.2557213897705078	0		-0.3526614074707031	5.93613623046875	0		
